<?xml version="1.0" encoding="UTF-8" standalone="no"?>
<!-- Created with Inkscape (http://www.inkscape.org/) -->

<svg
   xmlns:dc="http://purl.org/dc/elements/1.1/"
   xmlns:cc="http://creativecommons.org/ns#"
   xmlns:rdf="http://www.w3.org/1999/02/22-rdf-syntax-ns#"
   xmlns:svg="http://www.w3.org/2000/svg"
   xmlns="http://www.w3.org/2000/svg"
   xmlns:sodipodi="http://sodipodi.sourceforge.net/DTD/sodipodi-0.dtd"
   xmlns:inkscape="http://www.inkscape.org/namespaces/inkscape"
   id="svg3708"
   version="1.1"
   inkscape:version="0.91 r13725"
   width="812.5"
   height="812.5"
   viewBox="0 0 812.5 812.5"
   sodipodi:docname="km.svg">
  <metadata
     id="metadata3714">
    <rdf:RDF>
      <cc:Work
         rdf:about="">
        <dc:format>image/svg+xml</dc:format>
        <dc:type
           rdf:resource="http://purl.org/dc/dcmitype/StillImage" />
        <dc:title></dc:title>
      </cc:Work>
    </rdf:RDF>
  </metadata>
  <defs
     id="defs3712" />
  <sodipodi:namedview
     pagecolor="#ffffff"
     bordercolor="#666666"
     borderopacity="1"
     objecttolerance="10"
     gridtolerance="10"
     guidetolerance="10"
     inkscape:pageopacity="0"
     inkscape:pageshadow="2"
     inkscape:window-width="1920"
     inkscape:window-height="1003"
     id="namedview3710"
     showgrid="false"
     inkscape:zoom="0.58092308"
     inkscape:cx="838.02257"
     inkscape:cy="652.46346"
     inkscape:window-x="-9"
     inkscape:window-y="-9"
     inkscape:window-maximized="1"
     inkscape:current-layer="layer16" />
  <g
     inkscape:groupmode="layer"
     id="layer15"
     inkscape:label="blue"
     style="display:inline">
    <path
       style="fill:#061e60"
       d="m 313.125,785.92389 c -9.105,-1.24834 -14.46321,-2.94818 -31.25091,-9.91404 -14.95919,-6.20714 -31.7484,-18.78744 -43.2017,-32.37139 C 235.53596,739.91856 185.76831,659.53125 128.07761,565 23.083332,392.95767 18.677951,385.31512 15.903671,370.39849 c -2.757378,-14.82578 -3.29204,-18.81362 -3.446629,-25.70712 -0.240304,-10.71573 2.324199,-33.24898 4.303869,-37.81637 0.893964,-2.0625 3.714078,-9.07543 6.26692,-15.58428 5.95008,-15.17061 13.776554,-27.02093 25.640518,-38.82316 8.548735,-8.50425 16.537262,-13.73747 83.206651,-54.50804 40.5625,-24.80533 79.9375,-48.90643 87.5,-53.55801 7.5625,-4.65157 26.7886,-16.4042 42.72466,-26.11695 15.93608,-9.71276 48.84233,-29.789721 73.125,-44.615477 C 412.53646,26.466479 409.83733,27.967135 425,23.756222 c 38.00322,-10.554094 74.23701,-5.057944 105.58167,16.015237 18.29462,12.299569 21.93865,16.804687 46.86129,57.934603 25.60335,42.253288 77.72164,127.597628 149.1097,244.168938 26.10346,42.625 48.22565,79.62437 49.1604,82.22082 5.51258,15.3122 8.12449,47.47595 4.86024,59.85017 -0.91148,3.45526 -1.37265,7.02391 -1.02482,7.93033 0.34782,0.90642 -0.17657,3.24568 -1.1653,5.19836 -0.98874,1.95267 -2.4851,6.47558 -3.32527,10.05091 -0.84016,3.57532 -2.32189,7.15982 -3.29274,7.96556 -0.97085,0.80572 -1.76517,2.10369 -1.76517,2.88435 0,4.41387 -18.921,31.34623 -27.12351,38.60789 -2.22366,1.96861 -35.79426,22.86068 -82.25149,51.18777 -8.9375,5.44961 -35.9375,21.93838 -60,36.6417 -24.0625,14.70334 -52.38717,31.95982 -62.94372,38.34774 -10.55656,6.38792 -28.27531,17.2548 -39.37501,24.14861 -11.09969,6.89383 -28.05627,17.26783 -37.68127,23.05333 -9.625,5.78551 -31.63971,19.11366 -48.92159,29.61811 -17.28187,10.50445 -34.43812,20.21964 -38.125,21.58931 -15.32825,5.69446 -39.64586,7.60675 -60.45341,4.75393 z"
       id="path3747"
       inkscape:connector-curvature="0" />
  </g>
  <g
     inkscape:groupmode="layer"
     id="layer16"
     inkscape:label="white">
    <path
       style="fill:#ffffff"
       d="m 322.5,784.78834 c -5.15625,-0.55715 -11.49258,-1.25391 -14.08072,-1.54835 -5.04024,-0.57341 -20.00232,-5.91262 -27.15077,-9.68872 -2.39607,-1.2657 -4.76915,-2.30127 -5.27352,-2.30127 -3.01693,0 -20.24832,-13.08382 -29.36972,-22.30049 C 236.11805,738.33255 233.90046,734.82938 130.97252,566.25 73.255464,471.71875 25.159462,392.40625 24.092524,390 c -3.536349,-7.97548 -8.847965,-30.47456 -9.590803,-40.625 -0.402506,-5.5 -0.128451,-14.78125 0.60901,-20.625 0.737462,-5.84375 1.499483,-12.03125 1.69338,-13.75 0.895688,-7.93959 10.413008,-31.00327 17.264708,-41.83822 4.987858,-7.88757 13.653118,-18.16353 15.306181,-18.15131 0.6875,0.005 36.086438,57.09857 78.6643,126.87439 42.57787,69.77583 77.90345,126.86514 78.50129,126.86514 2.84127,0 13.01403,-36.1087 17.87074,-63.43296 3.29138,-18.51773 8.04967,-57.06189 8.07507,-65.41165 0.009,-3.04837 0.90791,-5.26542 2.8261,-6.9723 5.32442,-4.73793 32.81116,-20.74559 35.62223,-20.74559 4.19664,0 3.41473,-2.75264 -2.00016,-7.04131 -6.75852,-5.35285 -21.96057,-23.31572 -30.61146,-36.17074 -14.2287,-21.14355 -25.47985,-48.4503 -30.995,-75.22545 -4.47829,-21.74144 -4.33537,-70.29231 0.23214,-78.85585 1.13785,-2.13333 25.35587,-17.39415 27.6035,-17.39415 0.85866,0 1.03703,1.26281 0.48551,3.4375 -5.57165,21.97012 -6.34265,50.28189 -1.94884,71.5625 10.93852,52.97854 42.94118,94.41241 91.29958,118.20565 47.01875,23.1341 102.98125,23.1341 150,0 33.76634,-16.61368 59.35714,-41.55709 75.90684,-73.98657 12.72196,-24.92897 18.10266,-47.36084 18.10266,-75.46908 0,-42.69853 -14.94144,-80.73733 -44.56419,-113.45417 C 508.40017,50.074776 477.95421,30.586221 455.3125,23.54371 452.39062,22.634887 450,21.465759 450,20.94565 c 0,-1.408599 19.12418,-1.142654 28.60588,0.3978 24.91961,4.048589 54.13785,18.754361 69.7115,35.086344 5.2661,5.522531 44.88628,69.191496 49.38389,79.359086 5.37929,12.16078 7.75302,29.32866 7.8412,56.71112 0.095,29.5112 -1.56422,41.0584 -9.45412,65.79321 -2.66109,8.34251 -4.83835,15.84909 -4.83835,16.68128 0,0.91162 2.36018,0.13992 5.9375,-1.94135 6.63676,-3.86124 8.064,-4.58018 13.4375,-6.7689 5.84276,-2.37985 12.29719,-5.18864 14.57221,-6.34142 1.13972,-0.5775 6.73072,-1.99393 12.42444,-3.14763 8.69386,-1.7616 11.94684,-1.87213 20.30625,-0.68995 5.4747,0.77422 11.6962,2.42166 13.82555,3.66098 2.97062,1.72895 14.72631,19.98249 50.51781,78.44104 25.65544,41.90326 47.93186,79.00024 49.50318,82.43774 5.46148,11.94792 7.50492,23.6129 7.55451,43.125 0.0449,17.65568 -0.81929,24.61055 -4.81473,38.75 -2.11341,7.47912 -12.42187,29.33185 -14.41871,30.56597 -1.58511,0.97966 2.8686,8.03463 -60.28366,-95.49341 C 669.80211,388.3764 642.22206,344.46875 638.52284,340 c -3.71597,-4.48899 -9.78503,-9.98541 -13.56184,-12.28225 -6.54021,-3.97738 -7.2687,-4.13391 -16.836,-3.6179 -8.23585,0.44421 -11.38947,1.26385 -17.87616,4.64609 -16.08694,8.38794 -27.217,22.50411 -35.26805,44.73021 l -2.84395,7.85115 2.56265,2.77385 c 3.52469,3.81517 126.55051,205.5443 126.55051,207.50866 0,1.73857 -38.6854,25.90165 -41.42012,25.87122 -0.93769,-0.01 -28.60425,-44.12899 -61.48128,-98.04124 C 515.00929,415.575 509.91412,408.1728 497.85996,402.50667 c -8.80454,-4.13862 -21.7975,-3.12805 -32.69967,2.54334 -12.13302,6.31169 -23.08072,18.01125 -29.737,31.7793 -9.38644,19.41518 -15.66769,5.6641 56.54773,123.79569 34.88307,57.0625 63.65882,104.89557 63.94609,106.29574 0.43674,2.12852 -2.75607,4.53556 -19.48216,14.6875 -11.00248,6.67796 -20.74822,12.1165 -21.65722,12.08562 -0.909,-0.0309 -37.82852,-59.41525 -82.04337,-131.96527 -59.67497,-97.91778 -80.05305,-132.3159 -79.08053,-133.48771 0.72056,-0.86822 7.44443,-5.32761 14.94193,-9.90973 17.82503,-10.89384 19.53412,-10.93556 29.11385,-0.71079 3.9268,4.1912 7.67228,7.29117 8.3233,6.8888 0.65103,-0.40235 1.55017,-2.68505 1.99808,-5.07266 0.44792,-2.38761 2.2089,-7.49432 3.91329,-11.34825 1.70438,-3.85393 2.82621,-7.44834 2.49294,-7.98757 -0.33327,-0.53924 -8.63986,-1.32038 -18.45908,-1.73586 -29.47083,-1.24697 -53.59742,-7.52519 -80.35314,-20.90949 -8.25,-4.12699 -19.67683,-10.86775 -25.39295,-14.97947 C 284.51594,358.36414 279.3786,355 278.81576,355 c -0.56284,0 -0.18466,2.39062 0.8404,5.3125 3.82819,10.91204 -1.46504,50.4323 -12.88291,96.18641 -2.35029,9.41815 -4.27325,17.43378 -4.27325,17.8125 0,1.68029 4.18322,0.40034 9.66872,-2.95835 10.80225,-6.61405 21.86653,-9.47806 36.61582,-9.47806 17.38587,0 26.76322,3.56364 38.93816,14.79753 7.78284,7.18127 12.95352,15.2476 76.41349,119.2061 61.88567,101.37951 67.8807,111.67052 66.0273,113.34194 -3.17448,2.86278 -43.03958,27.02943 -44.58752,27.02943 -0.75831,0 -27.49499,-42.8385 -59.41486,-95.19667 -39.42355,-64.66648 -60.17736,-97.53181 -64.71276,-102.47788 -9.26758,-10.1067 -19.96153,-15.30204 -32.67121,-15.87233 -17.55529,-0.78771 -29.23399,6.57426 -37.35373,23.54688 -2.81082,5.87544 -3.26805,8.41977 -3.14481,17.5 0.21895,16.13104 -0.7038,14.37491 55.17159,105 26.99152,43.77795 33.47823,54.36704 49.25905,80.41195 C 362.21915,764.85727 370,778.23056 370,778.88039 c 0,4.28329 -29.07183,7.89919 -47.5,5.90795 z m 57.06909,-445.45541 c -52.76557,-9.95799 -95.75144,-48.17648 -112.7478,-100.24339 -8.98523,-27.5255 -9.01648,-63.05784 -0.0795,-90.43539 6.0415,-18.50764 16.50508,-38.05494 24.09931,-45.02057 2.80701,-2.57469 76.2455,-47.904675 89.1589,-55.033443 2.35124,-1.297985 8.6961,-1.702485 25.625,-1.63365 20.27952,0.08246 23.7336,0.421703 35,3.437556 14.97952,4.009801 39.13306,15.658281 50.68885,24.445617 55.50504,42.20754 74.18424,117.72041 45.02673,182.02592 -8.80953,19.42899 -27.21985,42.23393 -45.02673,55.77476 -11.74595,8.93195 -35.73633,20.46025 -50.68885,24.35795 -15.8804,4.13957 -45.46939,5.26615 -61.05591,2.32463 z m 49.3252,-20.04822 c 29.47321,-5.98625 56.88547,-24.66566 74.75061,-50.93695 6.24698,-9.18637 14.8567,-28.22661 17.58189,-38.88202 7.70576,-30.12921 4.88088,-61.76929 -7.92924,-88.81173 -7.23102,-15.26485 -14.37461,-25.59654 -25.11598,-36.32498 C 448.22174,64.417265 387.6615,58.148984 340.52281,89.045619 288.96699,122.83743 269.7474,193.69331 296.70245,250.59599 c 7.23102,15.26485 14.37461,25.59653 25.11598,36.32498 28.44311,28.40889 67.87215,40.32634 107.07586,32.36374 z M 389.375,296.76896 c -10.88444,-2.61345 -14.70319,-3.82916 -21.4215,-6.8196 -21.88268,-9.74034 -40.74242,-29.47176 -49.94382,-52.25212 -6.06794,-15.02272 -7.35662,-22.28313 -7.35662,-41.44724 0,-19.16411 1.28868,-26.42453 7.35662,-41.44724 8.6021,-21.29664 26.12162,-40.45074 46.45375,-50.78791 12.85776,-6.53708 21.53359,-8.389851 39.28657,-8.389851 17.75297,0 26.42881,1.852771 39.28657,8.389851 20.33213,10.33717 37.85165,29.49127 46.45375,50.78791 6.06794,15.02272 7.35662,22.28313 7.35662,41.44724 0,19.16411 -1.28868,26.42453 -7.35662,41.44724 -8.58774,21.26112 -26.1261,40.45345 -46.37377,50.74711 -11.57355,5.88385 -20.77595,8.03932 -36.24155,8.48887 -8.25,0.23981 -16.125,0.16589 -17.5,-0.16426 z m 36.25,-15.71013 c 53.21897,-15.28296 75.78475,-82.87169 43.7543,-131.05237 -14.90584,-22.42157 -38.53113,-35.22313 -65.0043,-35.22313 -64.93989,0 -102.54351,77.49317 -65.0043,133.96021 19.26848,28.98391 53.36791,41.75931 86.2543,32.31529 z M 387.5,269.27168 c -24.58714,-6.48672 -44.10943,-25.97916 -50.65583,-50.57836 -2.32611,-8.74078 -2.32611,-24.89586 0,-33.63665 6.62011,-24.87611 26.23881,-44.27413 51.23096,-50.65465 36.72179,-9.37511 75.20236,13.53513 85.0807,50.65465 2.32611,8.74079 2.32611,24.89587 0,33.63665 -6.6201,24.87612 -26.2388,44.27414 -51.23095,50.65465 -9.24749,2.3609 -25.32202,2.32527 -34.42488,-0.0762 z m 33.10406,-3.26979 c 8.36011,-2.10767 17.02551,-7.19847 24.67872,-14.49837 12.61997,-12.03742 18.79617,-26.49644 18.79617,-44.00352 0,-17.60328 -6.1712,-31.96134 -18.99425,-44.19244 -22.82081,-21.76739 -57.34859,-21.76739 -80.1694,0 -12.82305,12.2311 -18.99425,26.58916 -18.99425,44.19244 0,17.60327 6.1712,31.96134 18.99425,44.19244 15.16791,14.46775 34.92461,19.54431 55.68876,14.30945 z"
       id="path3745"
       inkscape:connector-curvature="0" />
  </g>
</svg>
